<?xml version="1.0" encoding="UTF-8" standalone="no"?>
<svg
   xmlns:dc="http://purl.org/dc/elements/1.1/"
   xmlns:cc="http://creativecommons.org/ns#"
   xmlns:rdf="http://www.w3.org/1999/02/22-rdf-syntax-ns#"
   xmlns:svg="http://www.w3.org/2000/svg"
   xmlns="http://www.w3.org/2000/svg"
   viewBox="0 0 388 248"
   height="248"
   width="388"
   xml:space="preserve"
   id="svg2"
   version="1.1"><metadata
     id="metadata8"><rdf:RDF><cc:Work
         rdf:about=""><dc:format>image/svg+xml</dc:format><dc:type
           rdf:resource="http://purl.org/dc/dcmitype/StillImage" /></cc:Work></rdf:RDF></metadata><defs
     id="defs6" /><g
     transform="matrix(1.3333333,0,0,-1.3333333,0,248)"
     id="g10"><g
       transform="scale(0.1)"
       id="g12"><path
         id="path14"
         style="fill:#295695;fill-opacity:1;fill-rule:evenodd;stroke:none"
         d="m 1791.54,1488.48 262.49,208.07 c 6.47,5.13 13.09,9.27 19.83,12.59 -9,6.56 -18.3,12.95 -27.98,19.13 -80.2,51.14 -296.51,80.41 -376.29,80.41 -171.81,0 -347.04,-69.73 -454.2,-126.52 -65.93,-34.93 -140.59,-86.15 -180,-113.39 -5.96,-4.12 -17.69,-12.73 -22.64,-15.03 -7.87,-3.66 -15.648,-2.78 -11.78,7.84 1.88,5.16 14.45,15.17 21.53,22.29 39.18,39.4 86.36,73.24 133.92,103.99 123.24,79.69 260.52,134.13 458.62,160.41 174.11,23.09 366.65,-19.87 501.6,-97.75 58.75,-33.91 106.16,-74.51 139.13,-118.76 59.35,-75.58 101.71,-178.03 83.24,-277.23 -28.01,-150.41 -243.99,-368.413 -612.59,-390.276 -96.44,-5.719 -188.55,-3.395 -266.37,9.891 -215.16,36.725 -345.75,124.025 -355.46,236.395 -8.19,94.59 68.13,191.32 214.14,251.09 15.1,6.18 35.89,25.53 -21.49,16.94 -260.72,-62.28 -439.291,-229.97 -439.99,-402.82 -1.156,-287.094 285.56,-418.633 635.05,-407.918 29.51,0.902 109.41,9.063 148,17.258 54.54,11.582 60.98,3.137 98.69,30.406 l 144.8,104.711 v 0.004 c 35.86,26.805 70.85,54.832 107.58,80.422 30.27,21.09 19.62,-9.836 5.81,-31.895 -26,-41.515 -39.24,-52.453 -87.95,-97.363 l -0.18,-0.191 -0.01,0.019 c -31.39,-28.711 -65.04,-55.465 -104.31,-84.035 -96.45,-70.164 -86.8,-65.023 -138.22,-73.953 -42.8,-7.438 -83.16,-16.289 -131.15,-19.504 -457.92,-30.688 -748.036,176.367 -731.821,494.279 13.277,260.46 374.921,478.13 732.241,433.22 50.98,-6.4 100.17,-19.6 149.13,-33.94 63.54,-18.62 55.06,-39.68 106.63,1.21 z M 1729.45,156.414 c 6.1,23.363 11.37,45.738 15.74,67.039 22.04,-0.66 42.96,-0.988 62.65,-0.988 20,0 41.12,0.328 63.25,0.988 -5.64,-20.808 -10.91,-43.18 -15.74,-67.039 -22.08,0.492 -43.09,0.742 -62.94,0.742 -19.85,0 -40.86,-0.25 -62.96,-0.742 z M 460.703,136.805 C 455.352,122.82 448.641,103.363 440.219,78.2891 431.801,53.207 425.781,33.9023 422.121,20.0703 365.23,12.6211 314.777,8.97266 270.902,8.97266 228.688,8.97266 189.906,18.5742 155.367,29.2656 58,59.4102 1.11719,128.484 7.78125,241.484 10.3359,284.785 29.957,332.117 55.1484,364.625 149.105,485.852 264.672,495.141 380.648,494.016 c 38.536,-0.371 82.622,-6.75 138.114,-15.719 L 494.414,390.93 c -29.488,6.687 -38.848,6.793 -57.34,9.136 -18.648,2.368 -35.969,3.649 -52.148,3.649 -35.039,0 -79.414,-0.594 -109.653,-13.453 -30.16,-12.824 -50.339,-30.297 -70.343,-54.77 -29.328,-35.875 -43.59,-115.613 -20.637,-157.801 10.477,-19.453 26.504,-34.347 47.863,-44.992 21.555,-10.488 49.086,-15.804 83.121,-15.804 18.52,0 38.754,1.367 61.039,4.101 22.114,2.738 50.309,8.059 84.387,15.809 z M 1500.38,24.5156 c 24.32,87.2144 47.03,183.2734 68.15,288.1834 l -104.99,-2.988 6.8,29.875 c 3.58,15.973 7.34,33.437 11.19,52.512 46.36,-0.344 100.36,-0.578 162.14,-0.578 l 60.59,0.347 h 58.75 l 31.93,0.231 -6.37,-26.43 c -3.24,-14.133 -5.92,-25.738 -7.85,-35.047 -1.91,-9.187 -3.31,-16.199 -4.19,-20.91 -34.66,1.953 -63.32,2.988 -86,2.988 h -17.15 c -8.38,-31.715 -15.7,-61.015 -21.93,-87.902 -8.92,-38.496 -17.32,-75.953 -24.99,-112.266 -7.78,-36.3083 -13.63,-65.6091 -17.78,-88.0154 -26.8,0.3477 -44.01,0.5782 -51.85,0.5782 -7.01,0 -25.86,-0.2305 -56.45,-0.5782 z m -418.05,0 c 12.66,46.3086 22.79,85.1444 30.44,116.2854 7.68,31.254 17.27,72.847 28.73,124.554 11.49,51.825 18.8,86.18 21.93,103.071 l 4.18,23.672 c 38.4,-0.344 84.98,-0.578 139.76,-0.578 50.49,0 94.97,0.234 133.6,0.578 l -2.16,-8.848 c -0.51,-2.184 -2.37,-10 -5.49,-23.441 l -6.92,-29.418 c -1.57,-6.203 -2.86,-12.637 -4.06,-19.075 -31.31,1.383 -57.61,2.188 -78.94,2.188 -23.52,0 -39.43,-0.117 -47.69,-0.117 -8.28,-0.114 -21.22,-0.574 -38.81,-1.266 l -14.46,-61.703 c 19.12,-0.574 41.56,-0.801 67.17,-0.801 9.2,0 33.68,0.688 73.43,1.953 -5.93,-22.98 -12.46,-50.332 -19.93,-82.156 -28.16,0.34 -49.76,0.57 -65.02,0.57 -22.47,0 -47.9,-0.687 -76.05,-1.953 L 1207,102.652 h 28.23 c 8.25,0 25.54,0.227 51.79,0.805 l 50.95,1.379 c 7.57,0.23 20.24,0.918 38.15,2.184 -6.93,-26.6606 -13.59,-54.1216 -20.21,-82.5044 -39.77,0.3477 -83.42,0.5782 -130.88,0.5782 l -107.84,-0.3477 z m -294.166,0 c 10.199,36.4258 17.93,65.7266 23.379,87.7854 8.031,32.637 18.242,77.562 30.625,134.785 12.383,57.223 20.437,95.602 24.102,115.367 l 5.492,29.645 c 49.074,-0.344 94.711,-0.578 137.048,-0.578 42.55,0 83.67,0.234 123.05,0.578 -10.27,-41.25 -16.53,-68.254 -18.89,-81.008 l -21.18,0.805 -17.1,0.226 -17.08,0.348 h -48.29 c -5.54,0 -21.793,-0.231 -48.828,-0.574 l -13.82,-62.739 35.394,-0.804 h 39.614 c 11.4,0 28.9,0.23 52.53,0.804 -8.06,-33.898 -13.94,-60.554 -17.5,-79.742 -26.07,0.918 -45.53,1.375 -58.284,1.375 -21.535,0 -45.141,-0.457 -70.821,-1.375 l -20.378,-96.9843 -6.899,-36.0781 -2.195,-11.836 -52.578,0.5782 c -4.078,0 -23.25,-0.2305 -57.391,-0.5782 z m -325.742,0 c 12.66,46.3086 22.785,85.1444 30.441,116.2854 7.676,31.254 17.266,72.847 28.731,124.554 11.484,51.825 18.793,86.18 21.922,103.071 l 4.179,23.672 c 38.407,-0.344 84.989,-0.578 139.766,-0.578 50.492,0 94.965,0.234 133.602,0.578 l -2.165,-8.848 c -0.507,-2.184 -2.375,-10 -5.492,-23.441 l -6.914,-29.418 c -1.57,-6.203 -2.863,-12.637 -4.058,-19.075 -31.313,1.383 -57.618,2.188 -78.938,2.188 -23.527,0 -39.433,-0.117 -47.691,-0.117 -8.282,-0.114 -21.227,-0.574 -38.813,-1.266 l -14.469,-61.703 c 19.133,-0.574 41.563,-0.801 67.172,-0.801 9.203,0 33.688,0.688 73.438,1.953 -5.934,-22.98 -12.465,-50.332 -19.934,-82.156 -28.16,0.34 -49.758,0.57 -65.019,0.57 -22.477,0 -47.903,-0.687 -76.047,-1.953 L 587.09,102.652 h 28.223 c 8.257,0 25.55,0.227 51.789,0.805 l 50.961,1.379 c 7.566,0.23 20.242,0.918 38.14,2.184 C 749.277,80.3594 742.621,52.8984 736,24.5156 696.234,24.8633 652.578,25.0938 605.121,25.0938 L 497.277,24.7461 Z M 2718.1,260.82 c 26.51,-0.382 51.8,-0.64 75.9,-0.64 41.11,0 73.45,0.258 96.75,0.64 -7.49,-27.414 -17.17,-66.234 -28.96,-116.59 -11.89,-50.2183 -20.41,-88.1441 -25.58,-113.7691 -23.13,-4.2265 -42.19,-7.3007 -57.2,-9.2226 -14.98,-1.7969 -32.82,-3.586 -53.7,-5 -20.9,-1.5352 -39.29,-2.3047 -55.44,-2.3047 -26.33,0 -51.89,2.1797 -76.53,6.6641 -24.55,4.3554 -46.12,11.4023 -64.32,21.2656 -18.32,9.8672 -32.68,23.0625 -43.01,39.9765 -10.23,16.7813 -17.05,36.6402 -20.05,59.7032 -3.12,23.062 -2.38,46.891 2.1,71.488 7.41,40.617 24.11,78.41 50.06,113.133 25.98,34.848 59.22,62.524 99.67,82.766 40.48,20.367 89.77,30.492 148.02,30.492 42.48,0 88.59,-5.254 138.32,-15.891 -5.32,-29.211 -10.01,-61.75 -14.06,-97.625 -13.03,4.867 -23.68,8.457 -31.91,11.02 -8.25,2.433 -17.89,4.738 -29.04,6.918 -11.17,2.051 -21.83,3.586 -32.07,4.609 -10.12,1.027 -19.35,1.539 -27.42,1.539 -21.36,0 -42.19,-3.203 -62.34,-9.48 -20.15,-6.278 -38.32,-16.016 -54.36,-29.082 -16.07,-13.196 -29.1,-28.828 -39.25,-47.02 -10.15,-18.191 -17,-37.41 -20.7,-57.652 -3.75,-20.629 -3.27,-39.078 1.64,-55.094 4.76,-16.144 14.81,-28.441 30.16,-36.898 15.38,-8.328 33.48,-12.559 54.22,-12.559 17.27,0 36.62,2.563 58.19,7.816 l 15.12,65.215 c -12.56,0.641 -19.96,0.895 -22.32,0.895 l -30.85,-0.254 8.71,36.898 c 0.98,3.973 2.28,9.739 4.03,17.297 1.85,7.43 3.84,17.68 6.22,30.746 z m -833.01,-239.07 18.25,60.6016 56.38,210.5004 34.36,138.753 c 35.7,-0.386 63.6,-0.64 83.97,-0.64 16.89,0 42.77,0.254 77.62,0.64 -0.65,-17.167 -0.92,-30.238 -0.69,-39.207 0.13,-8.835 1.18,-26.261 3.39,-52.269 2.11,-25.879 3.62,-48.301 4.26,-67.262 0.79,-18.836 1.09,-51.25 1.17,-97.117 14.19,31.516 26.92,58.422 38.01,81.102 11.09,22.675 24.58,48.3 40.27,77.125 15.69,28.828 25.85,47.789 30.19,56.632 4.5,8.965 10.82,22.547 19.03,40.996 28.99,-0.386 57.51,-0.64 85.46,-0.64 19,0 45.5,0.254 79.36,0.64 -16.04,-67.519 -28.96,-125.429 -38.9,-173.859 -19.91,-94.937 -33.04,-160.1483 -39.53,-195.7655 -1.36,-7.4297 -3.54,-20.7578 -6.72,-40.2305 -25.51,0.3867 -43.48,0.6406 -53.78,0.6406 -14.91,0 -33.33,-0.2539 -55.14,-0.6406 4.91,18.0664 14.57,60.8555 29.28,128.633 14.72,67.773 23.73,111.078 27.16,129.914 1.5,8.199 3.45,19.601 5.74,34.207 L 2263.82,192.277 2177.96,21.75 c -25.14,0.3867 -42.48,0.6406 -52.05,0.6406 -12.04,0 -30.6,-0.2539 -55.51,-0.6406 l -5.67,165.148 -4.94,88.016 c -0.14,3.332 -0.24,7.563 -0.32,12.555 -0.08,5 0.04,13.84 0.22,26.394 L 2037.2,230.715 1996.55,60.1836 1988.68,21.75 c -26.76,0.3867 -43.73,0.6406 -51.06,0.6406 -10.18,0 -27.62,-0.2539 -52.53,-0.6406" /><path
         id="path16"
         style="fill:none;stroke:#295695;stroke-width:2.16000009;stroke-linecap:butt;stroke-linejoin:miter;stroke-miterlimit:2.61310005;stroke-dasharray:none;stroke-opacity:1"
         d="m 1791.54,1488.48 262.49,208.07 c 6.47,5.13 13.09,9.27 19.83,12.59 -9,6.56 -18.3,12.95 -27.98,19.13 -80.2,51.14 -296.51,80.41 -376.29,80.41 -171.81,0 -347.04,-69.73 -454.2,-126.52 -65.93,-34.93 -140.59,-86.15 -180,-113.39 -5.96,-4.12 -17.69,-12.73 -22.64,-15.03 -7.87,-3.66 -15.648,-2.78 -11.78,7.84 1.88,5.16 14.45,15.17 21.53,22.29 39.18,39.4 86.36,73.24 133.92,103.99 123.24,79.69 260.52,134.13 458.62,160.41 174.11,23.09 366.65,-19.87 501.6,-97.75 58.75,-33.91 106.16,-74.51 139.13,-118.76 59.35,-75.58 101.71,-178.03 83.24,-277.23 -28.01,-150.41 -243.99,-368.413 -612.59,-390.276 -96.44,-5.719 -188.55,-3.395 -266.37,9.891 -215.16,36.725 -345.75,124.025 -355.46,236.395 -8.19,94.59 68.13,191.32 214.14,251.09 15.1,6.18 35.89,25.53 -21.49,16.94 -260.72,-62.28 -439.291,-229.97 -439.99,-402.82 -1.156,-287.094 285.56,-418.633 635.05,-407.918 29.51,0.902 109.41,9.063 148,17.258 54.54,11.582 60.98,3.137 98.69,30.406 l 144.8,104.711 v 0.004 c 35.86,26.805 70.85,54.832 107.58,80.422 30.27,21.09 19.62,-9.836 5.81,-31.895 -26,-41.515 -39.24,-52.453 -87.95,-97.363 l -0.18,-0.191 -0.01,0.019 c -31.39,-28.711 -65.04,-55.465 -104.31,-84.035 -96.45,-70.164 -86.8,-65.023 -138.22,-73.953 -42.8,-7.438 -83.16,-16.289 -131.15,-19.504 -457.92,-30.688 -748.036,176.367 -731.821,494.279 13.277,260.46 374.921,478.13 732.241,433.22 50.98,-6.4 100.17,-19.6 149.13,-33.94 63.54,-18.62 55.06,-39.68 106.63,1.21 z M 1729.45,156.414 c 6.1,23.363 11.37,45.738 15.74,67.039 22.04,-0.66 42.96,-0.988 62.65,-0.988 20,0 41.12,0.328 63.25,0.988 -5.64,-20.808 -10.91,-43.18 -15.74,-67.039 -22.08,0.492 -43.09,0.742 -62.94,0.742 -19.85,0 -40.86,-0.25 -62.96,-0.742 z M 460.703,136.805 C 455.352,122.82 448.641,103.363 440.219,78.2891 431.801,53.207 425.781,33.9023 422.121,20.0703 365.23,12.6211 314.777,8.97266 270.902,8.97266 228.688,8.97266 189.906,18.5742 155.367,29.2656 58,59.4102 1.11719,128.484 7.78125,241.484 10.3359,284.785 29.957,332.117 55.1484,364.625 149.105,485.852 264.672,495.141 380.648,494.016 c 38.536,-0.371 82.622,-6.75 138.114,-15.719 L 494.414,390.93 c -29.488,6.687 -38.848,6.793 -57.34,9.136 -18.648,2.368 -35.969,3.649 -52.148,3.649 -35.039,0 -79.414,-0.594 -109.653,-13.453 -30.16,-12.824 -50.339,-30.297 -70.343,-54.77 -29.328,-35.875 -43.59,-115.613 -20.637,-157.801 10.477,-19.453 26.504,-34.347 47.863,-44.992 21.555,-10.488 49.086,-15.804 83.121,-15.804 18.52,0 38.754,1.367 61.039,4.101 22.114,2.738 50.309,8.059 84.387,15.809 z M 1500.38,24.5156 c 24.32,87.2144 47.03,183.2734 68.15,288.1834 l -104.99,-2.988 6.8,29.875 c 3.58,15.973 7.34,33.437 11.19,52.512 46.36,-0.344 100.36,-0.578 162.14,-0.578 l 60.59,0.347 h 58.75 l 31.93,0.231 -6.37,-26.43 c -3.24,-14.133 -5.92,-25.738 -7.85,-35.047 -1.91,-9.187 -3.31,-16.199 -4.19,-20.91 -34.66,1.953 -63.32,2.988 -86,2.988 h -17.15 c -8.38,-31.715 -15.7,-61.015 -21.93,-87.902 -8.92,-38.496 -17.32,-75.953 -24.99,-112.266 -7.78,-36.3083 -13.63,-65.6091 -17.78,-88.0154 -26.8,0.3477 -44.01,0.5782 -51.85,0.5782 -7.01,0 -25.86,-0.2305 -56.45,-0.5782 z m -418.05,0 c 12.66,46.3086 22.79,85.1444 30.44,116.2854 7.68,31.254 17.27,72.847 28.73,124.554 11.49,51.825 18.8,86.18 21.93,103.071 l 4.18,23.672 c 38.4,-0.344 84.98,-0.578 139.76,-0.578 50.49,0 94.97,0.234 133.6,0.578 l -2.16,-8.848 c -0.51,-2.184 -2.37,-10 -5.49,-23.441 l -6.92,-29.418 c -1.57,-6.203 -2.86,-12.637 -4.06,-19.075 -31.31,1.383 -57.61,2.188 -78.94,2.188 -23.52,0 -39.43,-0.117 -47.69,-0.117 -8.28,-0.114 -21.22,-0.574 -38.81,-1.266 l -14.46,-61.703 c 19.12,-0.574 41.56,-0.801 67.17,-0.801 9.2,0 33.68,0.688 73.43,1.953 -5.93,-22.98 -12.46,-50.332 -19.93,-82.156 -28.16,0.34 -49.76,0.57 -65.02,0.57 -22.47,0 -47.9,-0.687 -76.05,-1.953 L 1207,102.652 h 28.23 c 8.25,0 25.54,0.227 51.79,0.805 l 50.95,1.379 c 7.57,0.23 20.24,0.918 38.15,2.184 -6.93,-26.6606 -13.59,-54.1216 -20.21,-82.5044 -39.77,0.3477 -83.42,0.5782 -130.88,0.5782 l -107.84,-0.3477 z m -294.166,0 c 10.199,36.4258 17.93,65.7266 23.379,87.7854 8.031,32.637 18.242,77.562 30.625,134.785 12.383,57.223 20.437,95.602 24.102,115.367 l 5.492,29.645 c 49.074,-0.344 94.711,-0.578 137.048,-0.578 42.55,0 83.67,0.234 123.05,0.578 -10.27,-41.25 -16.53,-68.254 -18.89,-81.008 l -21.18,0.805 -17.1,0.226 -17.08,0.348 h -48.29 c -5.54,0 -21.793,-0.231 -48.828,-0.574 l -13.82,-62.739 35.394,-0.804 h 39.614 c 11.4,0 28.9,0.23 52.53,0.804 -8.06,-33.898 -13.94,-60.554 -17.5,-79.742 -26.07,0.918 -45.53,1.375 -58.284,1.375 -21.535,0 -45.141,-0.457 -70.821,-1.375 l -20.378,-96.9843 -6.899,-36.0781 -2.195,-11.836 -52.578,0.5782 c -4.078,0 -23.25,-0.2305 -57.391,-0.5782 z m -325.742,0 c 12.66,46.3086 22.785,85.1444 30.441,116.2854 7.676,31.254 17.266,72.847 28.731,124.554 11.484,51.825 18.793,86.18 21.922,103.071 l 4.179,23.672 c 38.407,-0.344 84.989,-0.578 139.766,-0.578 50.492,0 94.965,0.234 133.602,0.578 l -2.165,-8.848 c -0.507,-2.184 -2.375,-10 -5.492,-23.441 l -6.914,-29.418 c -1.57,-6.203 -2.863,-12.637 -4.058,-19.075 -31.313,1.383 -57.618,2.188 -78.938,2.188 -23.527,0 -39.433,-0.117 -47.691,-0.117 -8.282,-0.114 -21.227,-0.574 -38.813,-1.266 l -14.469,-61.703 c 19.133,-0.574 41.563,-0.801 67.172,-0.801 9.203,0 33.688,0.688 73.438,1.953 -5.934,-22.98 -12.465,-50.332 -19.934,-82.156 -28.16,0.34 -49.758,0.57 -65.019,0.57 -22.477,0 -47.903,-0.687 -76.047,-1.953 L 587.09,102.652 h 28.223 c 8.257,0 25.55,0.227 51.789,0.805 l 50.961,1.379 c 7.566,0.23 20.242,0.918 38.14,2.184 C 749.277,80.3594 742.621,52.8984 736,24.5156 696.234,24.8633 652.578,25.0938 605.121,25.0938 L 497.277,24.7461 Z M 2718.1,260.82 c 26.51,-0.382 51.8,-0.64 75.9,-0.64 41.11,0 73.45,0.258 96.75,0.64 -7.49,-27.414 -17.17,-66.234 -28.96,-116.59 -11.89,-50.2183 -20.41,-88.1441 -25.58,-113.7691 -23.13,-4.2265 -42.19,-7.3007 -57.2,-9.2226 -14.98,-1.7969 -32.82,-3.586 -53.7,-5 -20.9,-1.5352 -39.29,-2.3047 -55.44,-2.3047 -26.33,0 -51.89,2.1797 -76.53,6.6641 -24.55,4.3554 -46.12,11.4023 -64.32,21.2656 -18.32,9.8672 -32.68,23.0625 -43.01,39.9765 -10.23,16.7813 -17.05,36.6402 -20.05,59.7032 -3.12,23.062 -2.38,46.891 2.1,71.488 7.41,40.617 24.11,78.41 50.06,113.133 25.98,34.848 59.22,62.524 99.67,82.766 40.48,20.367 89.77,30.492 148.02,30.492 42.48,0 88.59,-5.254 138.32,-15.891 -5.32,-29.211 -10.01,-61.75 -14.06,-97.625 -13.03,4.867 -23.68,8.457 -31.91,11.02 -8.25,2.433 -17.89,4.738 -29.04,6.918 -11.17,2.051 -21.83,3.586 -32.07,4.609 -10.12,1.027 -19.35,1.539 -27.42,1.539 -21.36,0 -42.19,-3.203 -62.34,-9.48 -20.15,-6.278 -38.32,-16.016 -54.36,-29.082 -16.07,-13.196 -29.1,-28.828 -39.25,-47.02 -10.15,-18.191 -17,-37.41 -20.7,-57.652 -3.75,-20.629 -3.27,-39.078 1.64,-55.094 4.76,-16.144 14.81,-28.441 30.16,-36.898 15.38,-8.328 33.48,-12.559 54.22,-12.559 17.27,0 36.62,2.563 58.19,7.816 l 15.12,65.215 c -12.56,0.641 -19.96,0.895 -22.32,0.895 l -30.85,-0.254 8.71,36.898 c 0.98,3.973 2.28,9.739 4.03,17.297 1.85,7.43 3.84,17.68 6.22,30.746 z m -833.01,-239.07 18.25,60.6016 56.38,210.5004 34.36,138.753 c 35.7,-0.386 63.6,-0.64 83.97,-0.64 16.89,0 42.77,0.254 77.62,0.64 -0.65,-17.167 -0.92,-30.238 -0.69,-39.207 0.13,-8.835 1.18,-26.261 3.39,-52.269 2.11,-25.879 3.62,-48.301 4.26,-67.262 0.79,-18.836 1.09,-51.25 1.17,-97.117 14.19,31.516 26.92,58.422 38.01,81.102 11.09,22.675 24.58,48.3 40.27,77.125 15.69,28.828 25.85,47.789 30.19,56.632 4.5,8.965 10.82,22.547 19.03,40.996 28.99,-0.386 57.51,-0.64 85.46,-0.64 19,0 45.5,0.254 79.36,0.64 -16.04,-67.519 -28.96,-125.429 -38.9,-173.859 -19.91,-94.937 -33.04,-160.1483 -39.53,-195.7655 -1.36,-7.4297 -3.54,-20.7578 -6.72,-40.2305 -25.51,0.3867 -43.48,0.6406 -53.78,0.6406 -14.91,0 -33.33,-0.2539 -55.14,-0.6406 4.91,18.0664 14.57,60.8555 29.28,128.633 14.72,67.773 23.73,111.078 27.16,129.914 1.5,8.199 3.45,19.601 5.74,34.207 L 2263.82,192.277 2177.96,21.75 c -25.14,0.3867 -42.48,0.6406 -52.05,0.6406 -12.04,0 -30.6,-0.2539 -55.51,-0.6406 l -5.67,165.148 -4.94,88.016 c -0.14,3.332 -0.24,7.563 -0.32,12.555 -0.08,5 0.04,13.84 0.22,26.394 L 2037.2,230.715 1996.55,60.1836 1988.68,21.75 c -26.76,0.3867 -43.73,0.6406 -51.06,0.6406 -10.18,0 -27.62,-0.2539 -52.53,-0.6406 z" /></g></g></svg>